PathFileType	4	(X/Y/Z)	C:/Users/beibeiliu/ov580/test_trc/User2\sequence.22_training_dense_right.trc
DataRate	CameraRate	NumFrames	NumMarkers	Units	OrigDataRate	OrigDataStartFrame	OrigNumFrames
120	120	10	19	mm	120	1	364
Frame#	Time	ThumbCMC			ThumbMCP			ThumbIP			ThumbTip			IndexMCP			IndexPIP			IndexTip			MiddleMCP			MiddlePIP			MiddleTip			RingMCP			RingPIP			RingTip			PinkyMCP			PinkyPIP			PinkyTip			BackHand1			BackHand2			BackHand3	
		X0	Y0	Z0	X1	Y1	Z1	X2	Y2	Z2	X3	Y3	Z3	X4	Y4	Z4	X5	Y5	Z5	X6	Y6	Z6	X7	Y7	Z7	X8	Y8	Z8	X9	Y9	Z9	X10	Y10	Z10	X11	Y11	Z11	X12	Y12	Z12	X13	Y13	Z13	X14	Y14	Z14	X15	Y15	Z15	X16	Y16	Z16	X17	Y17	Z17	X18	Y18	Z18	
0	0	48.9608	-23.6417	66.1314	17.6379	-27.8042	52.0684	-6.85308	-35.0343	28.2211	-23.157	-42.781	12.3961	42.8993	-20.989	-19.5398	31.1892	-28.8632	-47.4351	20.3789	-34.0175	-68.5558	74.1346	-21.1106	-32.6581	66.5092	-27.4774	-62.214	66.3665	-34.7657	-93.8428	97.5175	-29.3587	-30.386	98.1477	-33.8365	-57.0228	100.144	-36.7219	-85.9479	120.099	-41.3736	-16.0189	128.57	-47.1979	-39.0676	137.419	-47.2349	-58.5785	104.322	-15.2125	23.8518	110.808	-4.33514	56.264	73.96	-3.9785	46.1595	
1	0.00833333	44.6122	-22.6245	62.6453	20.5383	-28.3975	52.7787	-6.4556	-34.8556	26.8608	-26.4096	-42.4049	16.9064	41.6401	-21.4669	-18.5455	27.938	-26.9485	-45.4797	21.6185	-34.8105	-71.895	69.3136	-20.6334	-30.2414	63.7716	-27.9973	-65.3001	63.8918	-35.1419	-95.0284	93.5455	-28.7609	-31.6748	100.763	-34.4874	-53.3472	96.7126	-36.8235	-84.7317	117.968	-41.5367	-14.3328	127.659	-47.1038	-39.5094	132.463	-47.9868	-62.7514	102.738	-15.5922	24.8269	109.706	-5.21195	56.5985	71.5937	-2.87351	43.7554	
2	0.0166667	44.0471	-21.4593	69.0156	19.2453	-28.0179	51.6183	-8.7909	-34.077	29.7684	-25.1617	-41.892	16.0261	40.8164	-20.9439	-18.091	27.0531	-26.0089	-40.6862	21.607	-33.8007	-67.9705	67.317	-20.8381	-34.3992	62.0267	-27.5782	-63.9249	62.1114	-36.1355	-95.4773	95.2685	-28.8663	-29.6485	95.234	-33.7521	-52.4181	95.7094	-37.4702	-82.7446	117.203	-39.5962	-14.9765	125.889	-47.2281	-36.5121	130.855	-47.3685	-58.4396	102.581	-15.1633	24.2025	111.499	-4.55044	53.7793	73.2028	-1.94591	45.4483	
3	0.025	41.4367	-20.8154	66.5129	16.5733	-26.7359	55.1288	-9.77022	-33.3773	28.9486	-29.1053	-41.387	16.6957	38.1366	-19.7843	-15.514	24.5797	-26.5633	-44.4194	20.5434	-33.9465	-69.5104	70.4827	-20.4069	-32.7064	64.4367	-27.9013	-65.3316	63.0893	-36.6956	-93.6941	92.511	-27.3292	-31.1008	95.2269	-32.7182	-56.3935	92.8924	-36.9136	-83.2923	115.64	-39.4589	-13.5348	122.756	-46.4198	-34.7829	131.259	-46.759	-62.0254	99.0269	-12.9986	24.4966	109.622	-6.03486	57.1254	67.9307	-2.65816	43.0598	
4	0.0333333	39.4497	-19.3927	65.647	16.473	-26.4432	54.1774	-10.7852	-32.7679	31.031	-29.3047	-41.6231	15.869	37.6196	-19.4421	-19.3817	24.2349	-24.6021	-41.2171	19.6724	-33.8569	-68.2649	65.5926	-18.4858	-28.4201	61.1095	-27.2611	-64.5543	58.9105	-34.2319	-91.5449	91.5047	-27.5982	-25.7646	91.6332	-32.2673	-56.6835	92.4968	-35.5279	-84.6354	115.951	-40.1552	-10.6261	123.001	-45.0508	-39.155	130.114	-47.1779	-62.1823	99.5039	-13.429	27.846	111.839	-4.38187	56.3732	73.2832	-2.55959	45.941	
5	0.0416667	39.6888	-20.5596	64.6526	18.0047	-27.545	52.9425	-7.72335	-34.4362	34.0074	-26.9717	-42.0134	18.3574	35.2251	-19.6817	-16.6906	27.3608	-25.9048	-44.405	12.8341	-32.7575	-69.0929	68.0236	-18.9335	-28.8674	64.2758	-25.8075	-61.3874	58.7766	-33.217	-89.6528	90.3018	-27.1946	-29.0689	94.8887	-31.8492	-53.3454	90.3198	-35.9299	-80.4093	117.612	-39.9723	-13.8089	120.745	-44.5888	-35.6261	132.107	-45.0013	-62.48	103.005	-15.3517	24.8169	108.395	-5.89041	54.7015	72.0599	-3.27126	42.5078	
6	0.05	41.8686	-21.4264	65.1403	14.8996	-25.7411	55.35	-12.945	-32.3959	32.8224	-30.5866	-41.4104	20.4343	36.182	-18.9986	-17.1964	21.9988	-24.4023	-43.0205	17.9868	-32.5792	-69.3432	64.881	-17.3146	-29.6063	61.5656	-24.7862	-60.9474	58.8455	-32.4012	-91.5199	94.2575	-26.0706	-29.163	95.6357	-30.8986	-53.6961	93.5511	-34.6532	-80.6582	114.497	-38.6014	-11.5068	124.717	-44.7049	-37.5387	131.667	-43.9182	-62.9044	99.9451	-12.3988	28.0898	106.336	-4.7933	57.5438	69.674	-2.91064	43.9456	
7	0.0583333	41.959	-20.3	69.4859	15.3973	-25.1187	54.8437	-11.2808	-31.8886	33.5249	-30.615	-39.5532	18.3632	34.2796	-17.1004	-17.1477	24.5502	-24.9088	-45.6253	14.9571	-31.8559	-71.1864	66.6295	-17.4098	-31.7926	61.4704	-24.0824	-62.7199	60.9164	-32.0922	-96.1467	94.7869	-25.7774	-30.0288	96.5869	-29.7771	-55.3354	90.7532	-32.0337	-80.8638	115.039	-37.0689	-10.5358	121.435	-42.459	-34.865	132.184	-41.1476	-59.9072	98.7487	-10.7267	23.572	107.728	-2.879	58.8112	68.3424	-0.471687	47.0616	
8	0.0666667	44.1192	-20.5614	63.8484	16.3238	-24.9677	55.1741	-7.94917	-31.8153	34.4766	-28.5882	-39.739	20.2499	36.7191	-17.2371	-19.0057	24.6662	-22.5243	-44.0008	18.6752	-30.2489	-67.466	68.3172	-15.8886	-30.8788	62.7539	-23.7716	-65.1339	59.9074	-29.8631	-89.9361	92.5165	-22.6198	-26.1476	93.8645	-27.6213	-52.5638	92.8015	-30.1508	-84.1856	117.365	-35.3273	-12.5401	121.659	-40.625	-38.3195	133.111	-41.6509	-58.2301	104.102	-10.2756	24.2253	111.105	-3.4723	55.0973	72.8039	-1.15062	47.1823	
9	0.075	43.7005	-18.6079	68.7556	16.4031	-25.1285	53.9362	-8.31168	-30.9824	33.6007	-28.2076	-38.2782	17.3456	39.5454	-15.5124	-19.9533	25.2273	-21.5116	-40.591	17.9558	-30.8622	-70.0093	65.3164	-13.6017	-33.137	62.8202	-21.9597	-64.9879	59.2897	-27.5412	-90.8712	94.0651	-21.2847	-26.6548	93.2627	-25.7652	-52.8663	91.5126	-28.6798	-82.6785	120.092	-34.3903	-12.9146	123.506	-38.6874	-37.9918	129.31	-37.2272	-60.8429	100.092	-11.0345	27.803	111.232	-3.8314	54.1894	75.5394	1.23327	47.2701	
